%TF.GenerationSoftware,KiCad,Pcbnew,(6.0.11-0)*%
%TF.CreationDate,2025-02-06T17:03:14+09:00*%
%TF.ProjectId,ktMacroPad,6b744d61-6372-46f5-9061-642e6b696361,rev?*%
%TF.SameCoordinates,Original*%
%TF.FileFunction,Legend,Top*%
%TF.FilePolarity,Positive*%
%FSLAX46Y46*%
G04 Gerber Fmt 4.6, Leading zero omitted, Abs format (unit mm)*
G04 Created by KiCad (PCBNEW (6.0.11-0)) date 2025-02-06 17:03:14*
%MOMM*%
%LPD*%
G01*
G04 APERTURE LIST*
%ADD10C,0.150000*%
%ADD11C,0.120000*%
G04 APERTURE END LIST*
D10*
X62603571Y-9977380D02*
X62603571Y-8977380D01*
X62698809Y-9596428D02*
X62984523Y-9977380D01*
X62984523Y-9310714D02*
X62603571Y-9691666D01*
X63270238Y-9310714D02*
X63651190Y-9310714D01*
X63413095Y-8977380D02*
X63413095Y-9834523D01*
X63460714Y-9929761D01*
X63555952Y-9977380D01*
X63651190Y-9977380D01*
X63984523Y-9977380D02*
X63984523Y-8977380D01*
X64317857Y-9691666D01*
X64651190Y-8977380D01*
X64651190Y-9977380D01*
X65555952Y-9977380D02*
X65555952Y-9453571D01*
X65508333Y-9358333D01*
X65413095Y-9310714D01*
X65222619Y-9310714D01*
X65127380Y-9358333D01*
X65555952Y-9929761D02*
X65460714Y-9977380D01*
X65222619Y-9977380D01*
X65127380Y-9929761D01*
X65079761Y-9834523D01*
X65079761Y-9739285D01*
X65127380Y-9644047D01*
X65222619Y-9596428D01*
X65460714Y-9596428D01*
X65555952Y-9548809D01*
X66460714Y-9929761D02*
X66365476Y-9977380D01*
X66174999Y-9977380D01*
X66079761Y-9929761D01*
X66032142Y-9882142D01*
X65984523Y-9786904D01*
X65984523Y-9501190D01*
X66032142Y-9405952D01*
X66079761Y-9358333D01*
X66174999Y-9310714D01*
X66365476Y-9310714D01*
X66460714Y-9358333D01*
X66889285Y-9977380D02*
X66889285Y-9310714D01*
X66889285Y-9501190D02*
X66936904Y-9405952D01*
X66984523Y-9358333D01*
X67079761Y-9310714D01*
X67175000Y-9310714D01*
X67651190Y-9977380D02*
X67555952Y-9929761D01*
X67508333Y-9882142D01*
X67460714Y-9786904D01*
X67460714Y-9501190D01*
X67508333Y-9405952D01*
X67555952Y-9358333D01*
X67651190Y-9310714D01*
X67794047Y-9310714D01*
X67889285Y-9358333D01*
X67936904Y-9405952D01*
X67984523Y-9501190D01*
X67984523Y-9786904D01*
X67936904Y-9882142D01*
X67889285Y-9929761D01*
X67794047Y-9977380D01*
X67651190Y-9977380D01*
X68413095Y-9977380D02*
X68413095Y-8977380D01*
X68794047Y-8977380D01*
X68889285Y-9025000D01*
X68936904Y-9072619D01*
X68984523Y-9167857D01*
X68984523Y-9310714D01*
X68936904Y-9405952D01*
X68889285Y-9453571D01*
X68794047Y-9501190D01*
X68413095Y-9501190D01*
X69841666Y-9977380D02*
X69841666Y-9453571D01*
X69794047Y-9358333D01*
X69698809Y-9310714D01*
X69508333Y-9310714D01*
X69413095Y-9358333D01*
X69841666Y-9929761D02*
X69746428Y-9977380D01*
X69508333Y-9977380D01*
X69413095Y-9929761D01*
X69365476Y-9834523D01*
X69365476Y-9739285D01*
X69413095Y-9644047D01*
X69508333Y-9596428D01*
X69746428Y-9596428D01*
X69841666Y-9548809D01*
X70746428Y-9977380D02*
X70746428Y-8977380D01*
X70746428Y-9929761D02*
X70651190Y-9977380D01*
X70460714Y-9977380D01*
X70365476Y-9929761D01*
X70317857Y-9882142D01*
X70270238Y-9786904D01*
X70270238Y-9501190D01*
X70317857Y-9405952D01*
X70365476Y-9358333D01*
X70460714Y-9310714D01*
X70651190Y-9310714D01*
X70746428Y-9358333D01*
%TO.C,SW25*%
X86315476Y-34027380D02*
X86315476Y-33027380D01*
X86648809Y-33741666D01*
X86982142Y-33027380D01*
X86982142Y-34027380D01*
X87363095Y-33027380D02*
X88029761Y-34027380D01*
X88029761Y-33027380D02*
X87363095Y-34027380D01*
X88434523Y-24127380D02*
X87958333Y-24127380D01*
X87958333Y-23127380D01*
%TO.C,SW23*%
X48215476Y-34027380D02*
X48215476Y-33027380D01*
X48548809Y-33741666D01*
X48882142Y-33027380D01*
X48882142Y-34027380D01*
X49263095Y-33027380D02*
X49929761Y-34027380D01*
X49929761Y-33027380D02*
X49263095Y-34027380D01*
X50334523Y-24127380D02*
X49858333Y-24127380D01*
X49858333Y-23127380D01*
%TO.C,SW31*%
X10115476Y-53077380D02*
X10115476Y-52077380D01*
X10448809Y-52791666D01*
X10782142Y-52077380D01*
X10782142Y-53077380D01*
X11163095Y-52077380D02*
X11829761Y-53077380D01*
X11829761Y-52077380D02*
X11163095Y-53077380D01*
X12234523Y-43177380D02*
X11758333Y-43177380D01*
X11758333Y-42177380D01*
%TO.C,SW41*%
X10115476Y-72127380D02*
X10115476Y-71127380D01*
X10448809Y-71841666D01*
X10782142Y-71127380D01*
X10782142Y-72127380D01*
X11163095Y-71127380D02*
X11829761Y-72127380D01*
X11829761Y-71127380D02*
X11163095Y-72127380D01*
X12234523Y-62227380D02*
X11758333Y-62227380D01*
X11758333Y-61227380D01*
%TO.C,SW51*%
X10115476Y-91177380D02*
X10115476Y-90177380D01*
X10448809Y-90891666D01*
X10782142Y-90177380D01*
X10782142Y-91177380D01*
X11163095Y-90177380D02*
X11829761Y-91177380D01*
X11829761Y-90177380D02*
X11163095Y-91177380D01*
X12234523Y-81277380D02*
X11758333Y-81277380D01*
X11758333Y-80277380D01*
%TO.C,SW11*%
X10115476Y-14977380D02*
X10115476Y-13977380D01*
X10448809Y-14691666D01*
X10782142Y-13977380D01*
X10782142Y-14977380D01*
X11163095Y-13977380D02*
X11829761Y-14977380D01*
X11829761Y-13977380D02*
X11163095Y-14977380D01*
X12234523Y-5077380D02*
X11758333Y-5077380D01*
X11758333Y-4077380D01*
%TO.C,SW54*%
X67265476Y-91177380D02*
X67265476Y-90177380D01*
X67598809Y-90891666D01*
X67932142Y-90177380D01*
X67932142Y-91177380D01*
X68313095Y-90177380D02*
X68979761Y-91177380D01*
X68979761Y-90177380D02*
X68313095Y-91177380D01*
X69384523Y-81277380D02*
X68908333Y-81277380D01*
X68908333Y-80277380D01*
%TO.C,SW53*%
X48215476Y-91177380D02*
X48215476Y-90177380D01*
X48548809Y-90891666D01*
X48882142Y-90177380D01*
X48882142Y-91177380D01*
X49263095Y-90177380D02*
X49929761Y-91177380D01*
X49929761Y-90177380D02*
X49263095Y-91177380D01*
X50334523Y-81277380D02*
X49858333Y-81277380D01*
X49858333Y-80277380D01*
%TO.C,SW35*%
X86315476Y-53077380D02*
X86315476Y-52077380D01*
X86648809Y-52791666D01*
X86982142Y-52077380D01*
X86982142Y-53077380D01*
X87363095Y-52077380D02*
X88029761Y-53077380D01*
X88029761Y-52077380D02*
X87363095Y-53077380D01*
X88434523Y-43177380D02*
X87958333Y-43177380D01*
X87958333Y-42177380D01*
%TO.C,U1*%
X93355119Y-7638095D02*
X92545595Y-7638095D01*
X92450357Y-7685714D01*
X92402738Y-7733333D01*
X92355119Y-7828571D01*
X92355119Y-8019047D01*
X92402738Y-8114285D01*
X92450357Y-8161904D01*
X92545595Y-8209523D01*
X93355119Y-8209523D01*
X92355119Y-9209523D02*
X92355119Y-8638095D01*
X92355119Y-8923809D02*
X93355119Y-8923809D01*
X93212261Y-8828571D01*
X93117023Y-8733333D01*
X93069404Y-8638095D01*
X90445119Y-2519404D02*
X91445119Y-2519404D01*
X91445119Y-2757500D01*
X91397500Y-2900357D01*
X91302261Y-2995595D01*
X91207023Y-3043214D01*
X91016547Y-3090833D01*
X90873690Y-3090833D01*
X90683214Y-3043214D01*
X90587976Y-2995595D01*
X90492738Y-2900357D01*
X90445119Y-2757500D01*
X90445119Y-2519404D01*
X91445119Y-3709880D02*
X91445119Y-3805119D01*
X91397500Y-3900357D01*
X91349880Y-3947976D01*
X91254642Y-3995595D01*
X91064166Y-4043214D01*
X90826071Y-4043214D01*
X90635595Y-3995595D01*
X90540357Y-3947976D01*
X90492738Y-3900357D01*
X90445119Y-3805119D01*
X90445119Y-3709880D01*
X90492738Y-3614642D01*
X90540357Y-3567023D01*
X90635595Y-3519404D01*
X90826071Y-3471785D01*
X91064166Y-3471785D01*
X91254642Y-3519404D01*
X91349880Y-3567023D01*
X91397500Y-3614642D01*
X91445119Y-3709880D01*
X91445119Y-13227023D02*
X91445119Y-12750833D01*
X90968928Y-12703214D01*
X91016547Y-12750833D01*
X91064166Y-12846071D01*
X91064166Y-13084166D01*
X91016547Y-13179404D01*
X90968928Y-13227023D01*
X90873690Y-13274642D01*
X90635595Y-13274642D01*
X90540357Y-13227023D01*
X90492738Y-13179404D01*
X90445119Y-13084166D01*
X90445119Y-12846071D01*
X90492738Y-12750833D01*
X90540357Y-12703214D01*
X91445119Y-13560357D02*
X90445119Y-13893690D01*
X91445119Y-14227023D01*
%TO.C,SW12*%
X29165476Y-14977380D02*
X29165476Y-13977380D01*
X29498809Y-14691666D01*
X29832142Y-13977380D01*
X29832142Y-14977380D01*
X30213095Y-13977380D02*
X30879761Y-14977380D01*
X30879761Y-13977380D02*
X30213095Y-14977380D01*
X31284523Y-5077380D02*
X30808333Y-5077380D01*
X30808333Y-4077380D01*
%TO.C,SW21*%
X10115476Y-34027380D02*
X10115476Y-33027380D01*
X10448809Y-33741666D01*
X10782142Y-33027380D01*
X10782142Y-34027380D01*
X11163095Y-33027380D02*
X11829761Y-34027380D01*
X11829761Y-33027380D02*
X11163095Y-34027380D01*
X12234523Y-24127380D02*
X11758333Y-24127380D01*
X11758333Y-23127380D01*
%TO.C,SW42*%
X29165476Y-72127380D02*
X29165476Y-71127380D01*
X29498809Y-71841666D01*
X29832142Y-71127380D01*
X29832142Y-72127380D01*
X30213095Y-71127380D02*
X30879761Y-72127380D01*
X30879761Y-71127380D02*
X30213095Y-72127380D01*
X31284523Y-62227380D02*
X30808333Y-62227380D01*
X30808333Y-61227380D01*
%TO.C,SW32*%
X29165476Y-53077380D02*
X29165476Y-52077380D01*
X29498809Y-52791666D01*
X29832142Y-52077380D01*
X29832142Y-53077380D01*
X30213095Y-52077380D02*
X30879761Y-53077380D01*
X30879761Y-52077380D02*
X30213095Y-53077380D01*
X31284523Y-43177380D02*
X30808333Y-43177380D01*
X30808333Y-42177380D01*
%TO.C,SW13*%
X48215476Y-14977380D02*
X48215476Y-13977380D01*
X48548809Y-14691666D01*
X48882142Y-13977380D01*
X48882142Y-14977380D01*
X49263095Y-13977380D02*
X49929761Y-14977380D01*
X49929761Y-13977380D02*
X49263095Y-14977380D01*
X50334523Y-5077380D02*
X49858333Y-5077380D01*
X49858333Y-4077380D01*
%TO.C,SW33*%
X48215476Y-53077380D02*
X48215476Y-52077380D01*
X48548809Y-52791666D01*
X48882142Y-52077380D01*
X48882142Y-53077380D01*
X49263095Y-52077380D02*
X49929761Y-53077380D01*
X49929761Y-52077380D02*
X49263095Y-53077380D01*
X50334523Y-43177380D02*
X49858333Y-43177380D01*
X49858333Y-42177380D01*
%TO.C,SW24*%
X67265476Y-34027380D02*
X67265476Y-33027380D01*
X67598809Y-33741666D01*
X67932142Y-33027380D01*
X67932142Y-34027380D01*
X68313095Y-33027380D02*
X68979761Y-34027380D01*
X68979761Y-33027380D02*
X68313095Y-34027380D01*
X69384523Y-24127380D02*
X68908333Y-24127380D01*
X68908333Y-23127380D01*
%TO.C,SW55*%
X86315476Y-91177380D02*
X86315476Y-90177380D01*
X86648809Y-90891666D01*
X86982142Y-90177380D01*
X86982142Y-91177380D01*
X87363095Y-90177380D02*
X88029761Y-91177380D01*
X88029761Y-90177380D02*
X87363095Y-91177380D01*
X88434523Y-81277380D02*
X87958333Y-81277380D01*
X87958333Y-80277380D01*
%TO.C,SW22*%
X29165476Y-34027380D02*
X29165476Y-33027380D01*
X29498809Y-33741666D01*
X29832142Y-33027380D01*
X29832142Y-34027380D01*
X30213095Y-33027380D02*
X30879761Y-34027380D01*
X30879761Y-33027380D02*
X30213095Y-34027380D01*
X31284523Y-24127380D02*
X30808333Y-24127380D01*
X30808333Y-23127380D01*
%TO.C,SW44*%
X67265476Y-72127380D02*
X67265476Y-71127380D01*
X67598809Y-71841666D01*
X67932142Y-71127380D01*
X67932142Y-72127380D01*
X68313095Y-71127380D02*
X68979761Y-72127380D01*
X68979761Y-71127380D02*
X68313095Y-72127380D01*
X69384523Y-62227380D02*
X68908333Y-62227380D01*
X68908333Y-61227380D01*
%TO.C,SW43*%
X48215476Y-72127380D02*
X48215476Y-71127380D01*
X48548809Y-71841666D01*
X48882142Y-71127380D01*
X48882142Y-72127380D01*
X49263095Y-71127380D02*
X49929761Y-72127380D01*
X49929761Y-71127380D02*
X49263095Y-72127380D01*
X50334523Y-62227380D02*
X49858333Y-62227380D01*
X49858333Y-61227380D01*
%TO.C,SW52*%
X29165476Y-91177380D02*
X29165476Y-90177380D01*
X29498809Y-90891666D01*
X29832142Y-90177380D01*
X29832142Y-91177380D01*
X30213095Y-90177380D02*
X30879761Y-91177380D01*
X30879761Y-90177380D02*
X30213095Y-91177380D01*
X31284523Y-81277380D02*
X30808333Y-81277380D01*
X30808333Y-80277380D01*
%TO.C,SW34*%
X67265476Y-53077380D02*
X67265476Y-52077380D01*
X67598809Y-52791666D01*
X67932142Y-52077380D01*
X67932142Y-53077380D01*
X68313095Y-52077380D02*
X68979761Y-53077380D01*
X68979761Y-52077380D02*
X68313095Y-53077380D01*
X69384523Y-43177380D02*
X68908333Y-43177380D01*
X68908333Y-42177380D01*
%TO.C,SW45*%
X86315476Y-72127380D02*
X86315476Y-71127380D01*
X86648809Y-71841666D01*
X86982142Y-71127380D01*
X86982142Y-72127380D01*
X87363095Y-71127380D02*
X88029761Y-72127380D01*
X88029761Y-71127380D02*
X87363095Y-72127380D01*
X88434523Y-62227380D02*
X87958333Y-62227380D01*
X87958333Y-61227380D01*
D11*
%TO.C,U1*%
X94795000Y-717500D02*
X94795000Y552500D01*
X74940000Y-17227500D02*
X74940000Y-15957500D01*
X94795000Y-15957500D02*
X94795000Y-17227500D01*
X94795000Y552500D02*
X74940000Y552500D01*
X94795000Y-17227500D02*
X74940000Y-17227500D01*
X74940000Y552500D02*
X74940000Y-717500D01*
X94160000Y-5162500D02*
X91620000Y-5162500D01*
X91620000Y-5162500D02*
X91620000Y-11512500D01*
X91620000Y-11512500D02*
X94160000Y-11512500D01*
X94160000Y-11512500D02*
X94160000Y-5162500D01*
%TD*%
M02*
