M48
; DRILL file {KiCad (6.0.11-0)} date 
; FORMAT={-:-/ absolute / metric / decimal}
; #@! TF.CreationDate,2025-02-06T17:03:04+09:00
; #@! TF.GenerationSoftware,Kicad,Pcbnew,(6.0.11-0)
; #@! TF.FileFunction,NonPlated,1,2,NPTH
FMAT,2
METRIC
; #@! TA.AperFunction,NonPlated,NPTH,ComponentDrill
T1C1.900
; #@! TA.AperFunction,NonPlated,NPTH,ComponentDrill
T2C2.000
; #@! TA.AperFunction,NonPlated,NPTH,ComponentDrill
T3C3.000
; #@! TA.AperFunction,NonPlated,NPTH,ComponentDrill
T4C4.000
; #@! TA.AperFunction,NonPlated,NPTH,ComponentDrill
T5C4.200
%
G90
G05
T2
X63.6Y-2.35
X70.2Y-14.35
T3
X6.93Y-14.59
X6.93Y-33.64
X6.93Y-52.69
X6.93Y-71.74
X6.93Y-90.79
X9.525Y-3.625
X9.525Y-22.675
X9.525Y-41.725
X9.525Y-60.775
X9.525Y-79.825
X13.28Y-12.05
X13.28Y-31.1
X13.28Y-50.15
X13.28Y-69.2
X13.28Y-88.25
X14.525Y-5.825
X14.525Y-24.875
X14.525Y-43.925
X14.525Y-62.975
X14.525Y-82.025
X25.98Y-14.59
X25.98Y-33.64
X25.98Y-52.69
X25.98Y-71.74
X25.98Y-90.79
X28.575Y-3.625
X28.575Y-22.675
X28.575Y-41.725
X28.575Y-60.775
X28.575Y-79.825
X32.33Y-12.05
X32.33Y-31.1
X32.33Y-50.15
X32.33Y-69.2
X32.33Y-88.25
X33.575Y-5.825
X33.575Y-24.875
X33.575Y-43.925
X33.575Y-62.975
X33.575Y-82.025
X45.03Y-14.59
X45.03Y-33.64
X45.03Y-52.69
X45.03Y-71.74
X45.03Y-90.79
X47.625Y-3.625
X47.625Y-22.675
X47.625Y-41.725
X47.625Y-60.775
X47.625Y-79.825
X51.38Y-12.05
X51.38Y-31.1
X51.38Y-50.15
X51.38Y-69.2
X51.38Y-88.25
X52.625Y-5.825
X52.625Y-24.875
X52.625Y-43.925
X52.625Y-62.975
X52.625Y-82.025
X64.08Y-33.64
X64.08Y-52.69
X64.08Y-71.74
X64.08Y-90.79
X66.675Y-22.675
X66.675Y-41.725
X66.675Y-60.775
X66.675Y-79.825
X70.43Y-31.1
X70.43Y-50.15
X70.43Y-69.2
X70.43Y-88.25
X71.675Y-24.875
X71.675Y-43.925
X71.675Y-62.975
X71.675Y-82.025
X83.13Y-33.64
X83.13Y-52.69
X83.13Y-71.74
X83.13Y-90.79
X85.725Y-22.675
X85.725Y-41.725
X85.725Y-60.775
X85.725Y-79.825
X89.48Y-31.1
X89.48Y-50.15
X89.48Y-69.2
X89.48Y-88.25
X90.725Y-24.875
X90.725Y-43.925
X90.725Y-62.975
X90.725Y-82.025
T4
X9.525Y-9.525
X9.525Y-28.575
X9.525Y-47.625
X9.525Y-66.675
X9.525Y-85.725
X28.575Y-9.525
X28.575Y-28.575
X28.575Y-47.625
X28.575Y-66.675
X28.575Y-85.725
X47.625Y-9.525
X47.625Y-28.575
X47.625Y-47.625
X47.625Y-66.675
X47.625Y-85.725
X66.675Y-28.575
X66.675Y-47.625
X66.675Y-66.675
X66.675Y-85.725
X85.725Y-28.575
X85.725Y-47.625
X85.725Y-66.675
X85.725Y-85.725
T5
X19.05Y-19.05
X19.05Y-76.2
X38.1Y-38.1
X57.15Y-76.2
X76.2Y-38.1
T1
G00X4.035Y-9.525
M15
G01X4.435Y-9.525
M16
G05
G00X4.035Y-28.575
M15
G01X4.435Y-28.575
M16
G05
G00X4.035Y-47.625
M15
G01X4.435Y-47.625
M16
G05
G00X4.035Y-66.675
M15
G01X4.435Y-66.675
M16
G05
G00X4.035Y-85.725
M15
G01X4.435Y-85.725
M16
G05
G00X14.615Y-9.525
M15
G01X15.015Y-9.525
M16
G05
G00X14.615Y-28.575
M15
G01X15.015Y-28.575
M16
G05
G00X14.615Y-47.625
M15
G01X15.015Y-47.625
M16
G05
G00X14.615Y-66.675
M15
G01X15.015Y-66.675
M16
G05
G00X14.615Y-85.725
M15
G01X15.015Y-85.725
M16
G05
G00X23.085Y-9.525
M15
G01X23.485Y-9.525
M16
G05
G00X23.085Y-28.575
M15
G01X23.485Y-28.575
M16
G05
G00X23.085Y-47.625
M15
G01X23.485Y-47.625
M16
G05
G00X23.085Y-66.675
M15
G01X23.485Y-66.675
M16
G05
G00X23.085Y-85.725
M15
G01X23.485Y-85.725
M16
G05
G00X33.665Y-9.525
M15
G01X34.065Y-9.525
M16
G05
G00X33.665Y-28.575
M15
G01X34.065Y-28.575
M16
G05
G00X33.665Y-47.625
M15
G01X34.065Y-47.625
M16
G05
G00X33.665Y-66.675
M15
G01X34.065Y-66.675
M16
G05
G00X33.665Y-85.725
M15
G01X34.065Y-85.725
M16
G05
G00X42.135Y-9.525
M15
G01X42.535Y-9.525
M16
G05
G00X42.135Y-28.575
M15
G01X42.535Y-28.575
M16
G05
G00X42.135Y-47.625
M15
G01X42.535Y-47.625
M16
G05
G00X42.135Y-66.675
M15
G01X42.535Y-66.675
M16
G05
G00X42.135Y-85.725
M15
G01X42.535Y-85.725
M16
G05
G00X52.715Y-9.525
M15
G01X53.115Y-9.525
M16
G05
G00X52.715Y-28.575
M15
G01X53.115Y-28.575
M16
G05
G00X52.715Y-47.625
M15
G01X53.115Y-47.625
M16
G05
G00X52.715Y-66.675
M15
G01X53.115Y-66.675
M16
G05
G00X52.715Y-85.725
M15
G01X53.115Y-85.725
M16
G05
G00X61.185Y-28.575
M15
G01X61.585Y-28.575
M16
G05
G00X61.185Y-47.625
M15
G01X61.585Y-47.625
M16
G05
G00X61.185Y-66.675
M15
G01X61.585Y-66.675
M16
G05
G00X61.185Y-85.725
M15
G01X61.585Y-85.725
M16
G05
G00X71.765Y-28.575
M15
G01X72.165Y-28.575
M16
G05
G00X71.765Y-47.625
M15
G01X72.165Y-47.625
M16
G05
G00X71.765Y-66.675
M15
G01X72.165Y-66.675
M16
G05
G00X71.765Y-85.725
M15
G01X72.165Y-85.725
M16
G05
G00X80.235Y-28.575
M15
G01X80.635Y-28.575
M16
G05
G00X80.235Y-47.625
M15
G01X80.635Y-47.625
M16
G05
G00X80.235Y-66.675
M15
G01X80.635Y-66.675
M16
G05
G00X80.235Y-85.725
M15
G01X80.635Y-85.725
M16
G05
G00X90.815Y-28.575
M15
G01X91.215Y-28.575
M16
G05
G00X90.815Y-47.625
M15
G01X91.215Y-47.625
M16
G05
G00X90.815Y-66.675
M15
G01X91.215Y-66.675
M16
G05
G00X90.815Y-85.725
M15
G01X91.215Y-85.725
M16
G05
T0
M30
